<svg height="469pt" viewBox="-94 0 469 469.328" width="469pt" xmlns="http://www.w3.org/2000/svg"><path d="m131.410156 328.824219h33.96875v75.816406h-33.96875zm0 0" fill="#d1d1d1"/><path d="m165.386719 408.640625h-33.964844c-2.210937 0-4-1.792969-4-4v-75.816406c0-2.207031 1.789063-4 4-4h33.964844c2.210937 0 4 1.792969 4 4v75.816406c0 2.207031-1.789063 4-4 4zm-29.976563-8h25.96875v-67.816406h-25.96875zm0 0" fill="#63312d"/><path d="m114.402344 328.824219h30.503906v75.816406h-30.503906zm0 0" fill="#f8f3f3"/><path d="m144.90625 408.640625h-30.503906c-2.207032 0-4-1.792969-4-4v-75.816406c0-2.207031 1.792968-4 4-4h30.503906c2.210938 0 4 1.792969 4 4v75.816406c0 2.207031-1.789062 4-4 4zm-26.503906-8h22.503906v-67.816406h-22.503906zm0 0" fill="#63312d"/><path d="m79.941406 404.640625h172.480469v60.6875h-172.480469zm0 0" fill="#db785a"/><path d="m252.421875 469.328125h-172.480469c-2.210937 0-4-1.792969-4-4v-60.6875c0-2.207031 1.789063-4 4-4h172.480469c2.207031 0 4 1.792969 4 4v60.6875c0 2.207031-1.792969 4-4 4zm-168.480469-8h164.480469v-52.6875h-164.480469zm0 0" fill="#63312d"/><path d="m31.941406 404.640625h172.480469v60.6875h-172.480469zm0 0" fill="#f9a287"/><path d="m47.941406 420.640625h156.480469v-16h-172.480469v60.6875h16zm0 0" fill="#ffc8bb"/><path d="m204.421875 469.328125h-172.480469c-2.210937 0-4-1.792969-4-4v-60.6875c0-2.207031 1.789063-4 4-4h172.480469c2.207031 0 4 1.792969 4 4v60.6875c0 2.207031-1.792969 4-4 4zm-168.480469-8h164.480469v-52.6875h-164.480469zm0 0" fill="#63312d"/><path d="m173.484375 4.007812h-47.777344v14.519532c-22.949219 15.417968-38.0625 41.585937-38.0625 71.3125v121.160156c0 29.71875 15.113281 55.894531 38.0625 71.3125v14.519531h47.777344c47.40625 0 85.839844-38.425781 85.839844-85.832031v-121.160156c0-47.414063-38.433594-85.832032-85.839844-85.832032zm0 0" fill="#efc36a"/><path d="m173.484375 300.839844h-47.777344c-2.207031 0-4-1.792969-4-4v-12.425782c-23.871093-16.863281-38.0625-44.140624-38.0625-73.414062v-121.160156c0-29.273438 14.183594-56.550782 38.0625-73.414063v-12.425781c0-2.207031 1.792969-4 4-4h47.777344c49.535156 0 89.839844 40.304688 89.839844 89.832031v121.167969c0 49.535156-40.296875 89.839844-89.839844 89.839844zm-43.769531-8h43.777344c45.128906 0 81.839843-36.710938 81.839843-81.832032v-121.167968c0-45.128906-36.710937-81.832032-81.839843-81.832032h-43.777344v10.519532c0 1.335937-.664063 2.578125-1.765625 3.320312-22.730469 15.265625-36.296875 40.679688-36.296875 67.992188v121.167968c0 27.3125 13.566406 52.726563 36.296875 67.992188 1.101562.742188 1.765625 1.992188 1.765625 3.320312zm0 0" fill="#63312d"/><path d="m259.316406 162.59375v44.269531c0 60.695313-49.199218 109.878907-109.878906 109.878907-60.699219 0-109.898438-49.183594-109.898438-109.878907v-44.269531h-17.679687v44.589844c0 70.464844 57.113281 127.558594 127.578125 127.558594 70.445312 0 127.558594-57.101563 127.558594-127.558594v-44.589844zm0 0" fill="#d1d1d1"/><path d="m149.4375 338.742188c-72.554688 0-131.578125-59.015626-131.578125-131.558594v-44.589844c0-2.210938 1.792969-4 4-4h17.679687c2.207032 0 4 1.789062 4 4v44.269531c0 58.382813 47.503907 105.878907 105.898438 105.878907 58.382812 0 105.878906-47.503907 105.878906-105.878907v-44.269531c0-2.210938 1.792969-4 4-4h17.679688c2.207031 0 4 1.789062 4 4v44.589844c0 72.542968-59.015625 131.558594-131.558594 131.558594zm-123.578125-172.148438v40.589844c0 68.136718 55.433594 123.558594 123.578125 123.558594 68.125 0 123.558594-55.429688 123.558594-123.558594v-40.589844h-9.679688v40.269531c0 62.800781-51.089844 113.878907-113.878906 113.878907-62.800781 0-113.898438-51.085938-113.898438-113.878907v-40.269531zm0 0" fill="#63312d"/><path d="m125.714844 4.007812c-47.414063 0-85.839844 38.425782-85.839844 85.832032v121.160156c0 47.414062 38.433594 85.832031 85.839844 85.832031 47.410156 0 85.832031-38.425781 85.832031-85.832031v-121.160156c0-47.414063-38.429687-85.832032-85.832031-85.832032zm0 0" fill="#f9dd9d"/><path d="m55.867188 211v-121.160156c0-44.710938 34.183593-81.390625 77.839843-85.433594-2.640625-.238281-5.304687-.40625-8-.40625-47.414062 0-85.839843 38.425781-85.839843 85.832031v121.160157c0 47.414062 38.433593 85.832031 85.839843 85.832031 2.695313 0 5.359375-.167969 8-.410157-43.65625-4.023437-77.839843-40.703124-77.839843-85.414062zm0 0" fill="#ffeecf"/><path d="m241.613281 162.59375v44.269531c0 60.695313-49.203125 109.878907-109.875 109.878907-60.695312 0-109.894531-49.183594-109.894531-109.878907v-44.269531h-17.679688v44.589844c0 70.464844 57.113282 127.558594 127.574219 127.558594 70.449219 0 127.554688-57.101563 127.554688-127.558594v-44.589844zm0 0" fill="#f8f3f3"/><g fill="#63312d"><path d="m131.738281 338.742188c-72.550781 0-131.574219-59.015626-131.574219-131.558594v-44.589844c0-2.210938 1.792969-4 4-4h17.679688c2.207031 0 4 1.789062 4 4v44.269531c0 58.382813 47.503906 105.878907 105.894531 105.878907 58.378907 0 105.875-47.503907 105.875-105.878907v-44.269531c0-2.210938 1.789063-4 4-4h17.679688c2.207031 0 4 1.789062 4 4v44.589844c0 72.542968-59.015625 131.558594-131.554688 131.558594zm-123.582031-172.148438v40.589844c0 68.136718 55.441406 123.558594 123.574219 123.558594 68.128906 0 123.554687-55.429688 123.554687-123.558594v-40.589844h-9.679687v40.269531c0 62.800781-51.089844 113.878907-113.875 113.878907-62.796875 0-113.894531-51.085938-113.894531-113.878907v-40.269531zm0 0"/><path d="m125.714844 300.839844c-49.535156 0-89.839844-40.304688-89.839844-89.832032v-121.167968c0-49.535156 40.304688-89.8320315 89.839844-89.8320315 49.539062 0 89.832031 40.3046875 89.832031 89.8320315v121.167968c0 49.527344-40.304687 89.832032-89.832031 89.832032zm0-292.839844c-45.125 0-81.839844 36.710938-81.839844 81.832031v121.167969c0 45.128906 36.714844 81.832031 81.839844 81.832031 45.128906 0 81.832031-36.710937 81.832031-81.832031v-121.160156c0-45.128906-36.710937-81.839844-81.832031-81.839844zm0 0"/><path d="m4.15625 158.59375h121.550781v8h-121.550781zm0 0"/><path d="m39.644531 125.902344h86.070313v8h-86.070313zm0 0"/><path d="m39.644531 93.214844h86.070313v8h-86.070313zm0 0"/><path d="m229.402344 158.59375h46.007812v8h-46.007812zm0 0"/></g></svg>